<svg xmlns="http://www.w3.org/2000/svg" version="1.1" xmlns:xlink="http://www.w3.org/1999/xlink" xmlns:svgjs="http://svgjs.com/svgjs" width="1440" height="560" preserveAspectRatio="none" viewBox="0 0 1440 560"><g mask="url(&quot;#SvgjsMask1008&quot;)" fill="none"><path d="M776.91 233.86 a12.95 12.95 0 1 0 25.9 0 a12.95 12.95 0 1 0 -25.9 0z" stroke="#e73635"></path><path d="M584.75 300.74L628.48 300.74L628.48 344.47L584.75 344.47z" stroke="#d3b714"></path><path d="M106.1 438.18a41.21 41.21 0 1 0 20.06-79.94z" fill="#e73635"></path><path d="M510.49 371.19L511.62 371.19L511.62 386.67L510.49 386.67z" stroke="rgba(134, 194, 50, 1)"></path><path d="M375.71 301.23a15.44 15.44 0 1 0-18.26-24.9z" fill="rgba(134, 194, 50, 1)"></path><path d="M620.44 29.15L656.38 29.15L656.38 65.09L620.44 65.09z" stroke="#e73635"></path><path d="M30.63 579.12a34.26 34.26 0 1 0 40.63-55.18z" fill="#e73635"></path><path d="M48.47 181.67a45.86 45.86 0 1 0 1.63-91.71z" stroke="rgba(134, 194, 50, 1)"></path><path d="M1427.74 33.33L1439.5 33.33L1439.5 45.09L1427.74 45.09z" stroke="rgba(134, 194, 50, 1)"></path><path d="M891.99 65.34L929.09 65.34L929.09 99.23L891.99 99.23z" stroke="rgba(134, 194, 50, 1)"></path><path d="M706.33 167.19 a39.84 39.84 0 1 0 79.68 0 a39.84 39.84 0 1 0 -79.68 0z" stroke="#d3b714"></path><path d="M1360.41 470.81a15.16 15.16 0 1 0 26.48 14.76z" fill="rgba(134, 194, 50, 1)"></path><path d="M628.64 362.3 a7.72 7.72 0 1 0 15.44 0 a7.72 7.72 0 1 0 -15.44 0z" fill="#e73635"></path><path d="M612.99 229.69 a12.45 12.45 0 1 0 24.9 0 a12.45 12.45 0 1 0 -24.9 0z" stroke="#e73635"></path><path d="M101.39 22.99 a20.56 20.56 0 1 0 41.12 0 a20.56 20.56 0 1 0 -41.12 0z" fill="rgba(134, 194, 50, 1)"></path><path d="M72.04 553.89a11.27 11.27 0 1 0 21.24 7.54z" fill="#d3b714"></path><path d="M260.06 85.95L282.91 85.95L282.91 118.03L260.06 118.03z" fill="#d3b714"></path><path d="M523.37 169.82 a38.27 38.27 0 1 0 76.54 0 a38.27 38.27 0 1 0 -76.54 0z" fill="rgba(134, 194, 50, 1)"></path><path d="M396.31 401.59 a30.72 30.72 0 1 0 61.44 0 a30.72 30.72 0 1 0 -61.44 0z" stroke="#e73635"></path><path d="M730.63 205.18 a34.35 34.35 0 1 0 68.7 0 a34.35 34.35 0 1 0 -68.7 0z" stroke="rgba(134, 194, 50, 1)"></path><path d="M1270.52 516.34 a20.48 20.48 0 1 0 40.96 0 a20.48 20.48 0 1 0 -40.96 0z" fill="#d3b714"></path><path d="M43.59 159.31L51.63 159.31L51.63 201.7L43.59 201.7z" stroke="#d3b714"></path><path d="M319.23 447.21L372.14 447.21L372.14 464.91L319.23 464.91z" stroke="#d3b714"></path><path d="M278.59 420.69L318.89 420.69L318.89 471.91L278.59 471.91z" fill="#d3b714"></path><path d="M368.63 477.81a11.78 11.78 0 1 0-12.46-20z" fill="rgba(134, 194, 50, 1)"></path><path d="M103.84 25.38L136.01 25.38L136.01 40.68L103.84 40.68z" fill="#d3b714"></path><path d="M1233.56 188.29a4.57 4.57 0 1 0-6.57 6.35z" stroke="rgba(134, 194, 50, 1)"></path><path d="M480.28 268.09L515.82 268.09L515.82 303.63L480.28 303.63z" fill="#d3b714"></path><path d="M137.93 287.95a44.3 44.3 0 1 0 75.61-46.18z" fill="#e73635"></path><path d="M1222.68 367.82 a34.56 34.56 0 1 0 69.12 0 a34.56 34.56 0 1 0 -69.12 0z" stroke="rgba(134, 194, 50, 1)"></path><path d="M1412.15 129.69L1453.84 129.69L1453.84 162.09L1412.15 162.09z" stroke="#e73635"></path><path d="M889.59 132.82L925.22 132.82L925.22 168.45L889.59 168.45z" fill="#e73635"></path><path d="M124.24 499.27 a36.82 36.82 0 1 0 73.64 0 a36.82 36.82 0 1 0 -73.64 0z" fill="#d3b714"></path></g><defs><mask id="SvgjsMask1008"><rect width="1440" height="560" fill="#ffffff"></rect></mask></defs></svg>